# xmcd
#
# Track frame offsets:
#	150
#	14636
#	27075
#	50226
#	69014
#	87213
#	100535
#	114549
#	131563
#	146412
#	160900
#	181108
#	196574
#	209579
#	219659
#	233383
#	245769
#	263057
#	278123
#	288355
#
# Disc length: 4079 seconds
#
# Revision: 0
# Processed by: cddbd v1.5.2PL0 Copyright (c) Steve Scherf et al.
# Submitted via: EZCDAudioConverter 5.0.5.1
#
DISCID=170fed14
DTITLE=Sexta - EvryThing Is Gold
DYEAR=2016
DGENRE=
TTITLE0=אני עושה לי מנגינות
TTITLE1=הדודאים
TTITLE2=לפני שאתה הולך
TTITLE3=הבלדה על ליטל מיי
TTITLE4=נולדתי לשלום
TTITLE5=קופידון
TTITLE6=מלך סין
TTITLE7=צרות קטנות
TTITLE8=ספירת מלאי
TTITLE9=התרגעות
TTITLE10=הבאנו שלום עליכם
TTITLE11=הכל זהב
TTITLE12=ליל אמש
TTITLE13=החולמים אחר השמש
TTITLE14=היי טיריליי
TTITLE15=להפוך ענבים ליין
TTITLE16=שני שושנים
TTITLE17=ססתם יום של חול
TTITLE18=שיר נולד
TTITLE19=על כל אלה
EXTD=
EXTT0=
EXTT1=
EXTT2=
EXTT3=
EXTT4=
EXTT5=
EXTT6=
EXTT7=
EXTT8=
EXTT9=
EXTT10=
EXTT11=
EXTT12=
EXTT13=
EXTT14=
EXTT15=
EXTT16=
EXTT17=
EXTT18=
EXTT19=
PLAYORDER=
